<svg width="24" height="24" viewBox="0 0 24 24" fill="none" xmlns="http://www.w3.org/2000/svg">
<path d="M5.46967 19.5303C5.2034 19.2641 5.1792 18.8474 5.39705 18.5538L5.46967 18.4697L11.939 12L5.46967 5.53033C5.2034 5.26407 5.1792 4.8474 5.39705 4.55379L5.46967 4.46968C5.73594 4.20341 6.1526 4.1792 6.44621 4.39706L6.53033 4.46968L13.5303 11.4697C13.7966 11.7359 13.8208 12.1526 13.6029 12.4462L13.5303 12.5303L6.53033 19.5303C6.23744 19.8232 5.76256 19.8232 5.46967 19.5303Z" fill="black"/>
<path d="M10.4697 19.5303C10.2034 19.2641 10.1792 18.8474 10.3971 18.5538L10.4697 18.4697L16.939 12L10.4697 5.53033C10.2034 5.26407 10.1792 4.8474 10.3971 4.55379L10.4697 4.46968C10.7359 4.20341 11.1526 4.1792 11.4462 4.39706L11.5303 4.46968L18.5303 11.4697C18.7966 11.7359 18.8208 12.1526 18.6029 12.4462L18.5303 12.5303L11.5303 19.5303C11.2374 19.8232 10.7626 19.8232 10.4697 19.5303Z" fill="black"/>
</svg>
