<svg width="162" height="30" viewBox="0 0 162 30" fill="none" xmlns="http://www.w3.org/2000/svg">
<path d="M0.5 0H161.5C161.5 16.5685 148.069 30 131.5 30H30.5C13.9315 30 0.5 16.5685 0.5 0Z" fill="#A5A5A5"/>
<path d="M88.5303 19.0303C88.2641 19.2966 87.8474 19.3208 87.5538 19.1029L87.4697 19.0303L81 12.561L74.5303 19.0303C74.2641 19.2966 73.8474 19.3208 73.5538 19.1029L73.4697 19.0303C73.2034 18.7641 73.1792 18.3474 73.3971 18.0538L73.4697 17.9697L80.4697 10.9697C80.7359 10.7034 81.1526 10.6792 81.4462 10.8971L81.5303 10.9697L88.5303 17.9697C88.8232 18.2626 88.8232 18.7374 88.5303 19.0303Z" fill="white"/>
</svg>
