<svg width="40" height="40" viewBox="0 0 40 40" fill="none" xmlns="http://www.w3.org/2000/svg">
<path d="M7.7823 20.6314L15.2245 27.4109C15.7708 27.9124 16.6574 27.5184 16.6574 26.7751V23.5241C16.6574 23.2107 16.9171 22.951 17.2305 22.951H31.4343C32.0253 22.951 32.5 22.4763 32.5 21.8852V18.1149C32.5 17.5238 32.0253 17.0492 31.4343 17.0492H17.2305C16.9171 17.0492 16.6574 16.7895 16.6574 16.476V13.2251C16.6574 12.4818 15.7708 12.0877 15.2245 12.5892L7.7823 19.3687C7.69348 19.4482 7.62243 19.5455 7.57379 19.6543C7.52514 19.7631 7.5 19.8809 7.5 20.0001C7.5 20.1192 7.52514 20.2371 7.57379 20.3459C7.62243 20.4547 7.69348 20.552 7.7823 20.6314Z" fill="#068FFF"/>
</svg>
