<svg width="24" height="24" viewBox="0 0 24 24" fill="none" xmlns="http://www.w3.org/2000/svg">
<path d="M18.5303 4.46967C18.7966 4.73594 18.8208 5.1526 18.6029 5.44621L18.5303 5.53033L12.061 12L18.5303 18.4697C18.7966 18.7359 18.8208 19.1526 18.6029 19.4462L18.5303 19.5303C18.2641 19.7966 17.8474 19.8208 17.5538 19.6029L17.4697 19.5303L10.4697 12.5303C10.2034 12.2641 10.1792 11.8474 10.3971 11.5538L10.4697 11.4697L17.4697 4.46967C17.7626 4.17678 18.2374 4.17678 18.5303 4.46967Z" fill="black"/>
<path d="M13.5303 4.46967C13.7966 4.73594 13.8208 5.1526 13.6029 5.44621L13.5303 5.53033L7.061 12L13.5303 18.4697C13.7966 18.7359 13.8208 19.1526 13.6029 19.4462L13.5303 19.5303C13.2641 19.7966 12.8474 19.8208 12.5538 19.6029L12.4697 19.5303L5.46967 12.5303C5.20341 12.2641 5.1792 11.8474 5.39705 11.5538L5.46967 11.4697L12.4697 4.46967C12.7626 4.17678 13.2374 4.17678 13.5303 4.46967Z" fill="black"/>
</svg>
