<svg width="162" height="30" viewBox="0 0 162 30" fill="none" xmlns="http://www.w3.org/2000/svg">
<path d="M0.5 0H161.5C161.5 16.5685 148.069 30 131.5 30H30.5C13.9315 30 0.5 16.5685 0.5 0Z" fill="#068FFF"/>
<path d="M73.4697 10.9697C73.7359 10.7034 74.1526 10.6792 74.4462 10.8971L74.5303 10.9697L81 17.439L87.4697 10.9697C87.7359 10.7034 88.1526 10.6792 88.4462 10.8971L88.5303 10.9697C88.7966 11.2359 88.8208 11.6526 88.6029 11.9462L88.5303 12.0303L81.5303 19.0303C81.2641 19.2966 80.8474 19.3208 80.5538 19.1029L80.4697 19.0303L73.4697 12.0303C73.1768 11.7374 73.1768 11.2626 73.4697 10.9697Z" fill="white"/>
</svg>
